<svg width="33" height="32" viewBox="0 0 33 32" fill="none" xmlns="http://www.w3.org/2000/svg">
<path d="M16.5 12V17.3334M16.5 22.6667H16.5134M14.22 5.1467L2.92669 24C2.69385 24.4033 2.57065 24.8604 2.56935 25.3261C2.56804 25.7917 2.68868 26.2495 2.91926 26.6541C3.14984 27.0586 3.48233 27.3957 3.88364 27.6318C4.28495 27.868 4.74109 27.9949 5.20669 28H27.7934C28.259 27.9949 28.7151 27.868 29.1164 27.6318C29.5177 27.3957 29.8502 27.0586 30.0808 26.6541C30.3114 26.2495 30.432 25.7917 30.4307 25.3261C30.4294 24.8604 30.3062 24.4033 30.0734 24L18.78 5.1467C18.5423 4.75484 18.2077 4.43085 17.8083 4.20601C17.4089 3.98116 16.9583 3.86304 16.5 3.86304C16.0417 3.86304 15.5911 3.98116 15.1918 4.20601C14.7924 4.43085 14.4577 4.75484 14.22 5.1467Z" stroke="#625B71" stroke-width="2" stroke-linecap="round" stroke-linejoin="round"/>
</svg>
