<svg width="49" height="48" viewBox="0 0 49 48" fill="none" xmlns="http://www.w3.org/2000/svg">
<path d="M12.5 18V4H36.5V18M12.5 36H8.5C7.43913 36 6.42172 35.5786 5.67157 34.8284C4.92143 34.0783 4.5 33.0609 4.5 32V22C4.5 20.9391 4.92143 19.9217 5.67157 19.1716C6.42172 18.4214 7.43913 18 8.5 18H40.5C41.5609 18 42.5783 18.4214 43.3284 19.1716C44.0786 19.9217 44.5 20.9391 44.5 22V32C44.5 33.0609 44.0786 34.0783 43.3284 34.8284C42.5783 35.5786 41.5609 36 40.5 36H36.5M12.5 28H36.5V44H12.5V28Z" stroke="white" stroke-width="2" stroke-linecap="round" stroke-linejoin="round"/>
</svg>
