<svg width="25" height="25" viewBox="0 0 25 25" fill="none" xmlns="http://www.w3.org/2000/svg">
<path d="M12.5004 2.41992C7.19879 2.41992 2.90039 6.71832 2.90039 12.0199C2.90039 16.5183 5.99799 20.2823 10.174 21.3239C10.1292 21.1943 10.1004 21.0439 10.1004 20.8575V19.2167C9.71079 19.2167 9.05799 19.2167 8.89399 19.2167C8.23719 19.2167 7.65319 18.9343 7.36999 18.4095C7.05559 17.8263 7.00119 16.9343 6.22199 16.3887C5.99079 16.2071 6.16679 15.9999 6.43319 16.0279C6.92519 16.1671 7.33319 16.5047 7.71719 17.0055C8.09959 17.5071 8.27959 17.6207 8.99399 17.6207C9.34039 17.6207 9.85879 17.6007 10.3468 17.5239C10.6092 16.8575 11.0628 16.2439 11.6172 15.9543C8.42039 15.6255 6.89479 14.0351 6.89479 11.8759C6.89479 10.9463 7.29079 10.0471 7.96359 9.28952C7.74279 8.53752 7.46519 7.00392 8.04839 6.41992C9.48679 6.41992 10.3564 7.35272 10.5652 7.60472C11.282 7.35912 12.0692 7.21992 12.8964 7.21992C13.7252 7.21992 14.5156 7.35912 15.234 7.60632C15.4404 7.35592 16.3108 6.41992 17.7524 6.41992C18.338 7.00472 18.0572 8.54472 17.834 9.29512C18.5028 10.0511 18.8964 10.9479 18.8964 11.8759C18.8964 14.0335 17.3732 15.6231 14.1812 15.9535C15.0596 16.4119 15.7004 17.6999 15.7004 18.6703V20.8575C15.7004 20.9407 15.682 21.0007 15.6724 21.0719C19.4132 19.7607 22.1004 16.2087 22.1004 12.0199C22.1004 6.71832 17.802 2.41992 12.5004 2.41992Z" fill="#65558F"/>
</svg>
