<svg width="21" height="21" viewBox="0 0 21 21" fill="none" xmlns="http://www.w3.org/2000/svg">
<path d="M18.6818 0.0200195H2.31818C1.31364 0.0200195 0.5 0.833656 0.5 1.8382V18.2018C0.5 19.2064 1.31364 20.02 2.31818 20.02H18.6818C19.6864 20.02 20.5 19.2064 20.5 18.2018V1.8382C20.5 0.833656 19.6864 0.0200195 18.6818 0.0200195ZM6.82182 16.3837H4.14V7.75457H6.82182V16.3837ZM5.45364 6.52093C4.58909 6.52093 3.89 5.82002 3.89 4.95729C3.89 4.09456 4.59 3.39457 5.45364 3.39457C6.31545 3.39457 7.01636 4.09547 7.01636 4.95729C7.01636 5.82002 6.31545 6.52093 5.45364 6.52093ZM16.8673 16.3837H14.1873V12.1873C14.1873 11.1864 14.1691 9.89911 12.7936 9.89911C11.3982 9.89911 11.1836 10.9891 11.1836 12.1146V16.3837H8.50364V7.75457H11.0764V8.93366H11.1127C11.4709 8.25548 12.3455 7.54002 13.65 7.54002C16.3655 7.54002 16.8673 9.32729 16.8673 11.6509V16.3837Z" fill="#65558F"/>
</svg>
