<svg width="40" height="41" viewBox="0 0 40 41" fill="none" xmlns="http://www.w3.org/2000/svg">
<path d="M20.7696 30.649C20.2709 30.649 19.7721 30.649 19.2734 30.649C19.2218 30.6318 19.1703 30.6147 19.1187 30.6147C18.62 30.5461 18.1212 30.4946 17.6397 30.3917C11.8616 29.1055 8.21582 23.1886 9.67756 17.4433C11.2597 11.1834 18.0181 7.71905 24.0026 10.1715C27.5967 11.6465 29.7635 14.3562 30.5202 18.1636C30.589 18.5409 30.6406 18.9182 30.6922 19.2955C30.6922 19.7928 30.6922 20.2902 30.6922 20.7876C30.675 20.839 30.6578 20.8905 30.6578 20.9419C30.503 22.7941 29.9183 24.492 28.8521 26.0184C27.1496 28.4537 24.828 29.9801 21.8874 30.5118C21.509 30.5632 21.1479 30.5975 20.7696 30.649ZM15.7825 15.6425C15.4385 16.843 15.2666 18.095 15.2322 19.3812C16.6423 19.3812 18.0181 19.3812 19.3938 19.3812C19.3938 18.2665 19.3938 17.1689 19.3938 16.1227C18.19 15.9683 16.9862 15.814 15.7825 15.6425ZM19.3938 23.9089C19.3938 22.8456 19.3938 21.748 19.3938 20.6504C18.0009 20.6504 16.6251 20.6504 15.2322 20.6504C15.2838 21.9366 15.4557 23.1886 15.7825 24.3891C17.0034 24.2348 18.19 24.0804 19.3938 23.9089ZM24.828 19.3984C24.7764 18.1121 24.6045 16.8601 24.2777 15.6596C23.0739 15.814 21.8702 15.9683 20.6836 16.1398C20.6836 17.2032 20.6836 18.3008 20.6836 19.3984C22.0421 19.3984 23.4179 19.3984 24.828 19.3984ZM20.6664 20.6504C20.6664 21.7651 20.6664 22.8627 20.6664 23.9089C21.8702 24.0633 23.0568 24.2176 24.2777 24.3891C24.6045 23.1886 24.7936 21.9366 24.828 20.6504C23.4179 20.6504 22.0421 20.6504 20.6664 20.6504ZM13.9596 19.3984C13.9768 19.3641 13.9768 19.3469 13.9768 19.3298C14.0284 17.9921 14.2003 16.6715 14.5615 15.3852C14.5959 15.2823 14.5443 15.248 14.4411 15.2137C14.2347 15.1451 14.0284 15.0765 13.822 14.9736C13.3921 14.785 12.9622 14.5792 12.4979 14.3905C11.3801 15.8826 10.761 17.5462 10.6234 19.4155C11.7756 19.3984 12.859 19.3984 13.9596 19.3984ZM12.4979 25.6411C13.1685 25.3667 13.822 25.0923 14.4755 24.835C14.5959 24.7836 14.5959 24.7321 14.5615 24.6292C14.2863 23.6002 14.0972 22.5369 14.0284 21.4736C14.0112 21.1992 13.994 20.9248 13.9768 20.6504C12.859 20.6504 11.7756 20.6504 10.6578 20.6504C10.7782 22.5197 11.3973 24.1833 12.4979 25.6411ZM27.5451 14.4077C26.8745 14.6821 26.221 14.9565 25.5675 15.2137C25.4471 15.2652 25.4643 15.3338 25.4987 15.4367C25.7739 16.4657 25.9458 17.5119 26.0146 18.5752C26.0318 18.8496 26.049 19.124 26.0662 19.3984C27.184 19.3984 28.2846 19.3984 29.368 19.3984C29.3508 17.9578 28.7489 15.934 27.5451 14.4077ZM26.0834 20.6504C26.0834 20.7533 26.0662 20.8562 26.0662 20.9419C26.0318 21.3707 26.0318 21.7823 25.963 22.1939C25.8255 23.0171 25.6535 23.8232 25.4987 24.6292C25.4815 24.715 25.4815 24.7836 25.5847 24.8179C26.2382 25.0751 26.8917 25.3495 27.5623 25.6239C28.6629 24.1662 29.282 22.5026 29.4196 20.6332C28.2846 20.6504 27.184 20.6504 26.0834 20.6504ZM23.8306 14.4077C23.4179 13.2243 22.6096 11.9552 21.7842 11.3206C21.4402 11.0634 21.0791 10.8404 20.6492 10.7375C20.6492 12.1095 20.6492 13.4472 20.6492 14.8021C21.7326 14.785 22.7816 14.6306 23.8306 14.4077ZM20.6664 29.2941C21.1307 29.2255 21.7326 28.8482 22.2485 28.2994C22.9708 27.5276 23.4695 26.6187 23.8478 25.6411C22.7816 25.401 21.7326 25.2638 20.6664 25.2466C20.6664 26.6015 20.6664 27.9564 20.6664 29.2941ZM19.3938 10.7546C18.3448 10.8404 16.5047 12.967 16.2296 14.3905C17.1754 14.6306 18.9467 14.8536 19.3938 14.7678C19.3938 13.4301 19.3938 12.0924 19.3938 10.7546ZM19.3938 29.3627C19.3938 27.9392 19.3938 26.6015 19.3938 25.2466C18.3104 25.2638 17.2614 25.4181 16.1952 25.6582C16.7283 26.9274 17.3474 28.1107 18.4996 28.8996C18.7575 29.0711 19.0671 29.1912 19.3938 29.3627ZM23.6071 28.6767C24.7592 28.2136 25.7739 27.5448 26.6853 26.6358C26.1178 26.3957 25.6019 26.1899 25.0688 25.9669C24.6905 26.9617 24.2261 27.8535 23.6071 28.6767ZM26.6853 13.4129C25.7567 12.504 24.7592 11.818 23.5899 11.3721C24.2089 12.1953 24.6733 13.1042 25.0688 14.0818C25.6191 13.8588 26.135 13.6359 26.6853 13.4129ZM16.4531 28.6767C15.8341 27.8535 15.3697 26.9445 14.9914 25.9669C14.4583 26.1899 13.9252 26.4129 13.3749 26.6358C14.2691 27.5448 15.2838 28.2136 16.4531 28.6767ZM16.4531 11.3721C15.301 11.8351 14.2863 12.504 13.3749 13.4129C13.9424 13.6359 14.4583 13.8588 14.9914 14.0818C15.3697 13.0871 15.8341 12.1781 16.4531 11.3721Z" fill="#FF2D55"/>
<path d="M33.5516 40.013C31.9007 40.013 30.2498 39.3785 28.9944 38.1265C26.4836 35.6226 26.4836 31.5408 28.9944 29.0369C30.2154 27.8192 31.8319 27.1503 33.5516 27.1503C35.2713 27.1503 36.8878 27.8192 38.1087 29.0369C39.3297 30.2545 40.0004 31.8667 40.0004 33.5817C40.0004 35.2967 39.3297 36.9088 38.1087 38.1265C36.8534 39.3956 35.2025 40.013 33.5516 40.013ZM33.5516 28.3508C32.1586 28.3508 30.8345 28.8997 29.837 29.8772C27.7906 31.9181 27.7906 35.2453 29.837 37.269C31.8835 39.3099 35.2197 39.3099 37.2489 37.269C38.2463 36.2743 38.7794 34.9709 38.7794 33.5645C38.7794 32.1582 38.2291 30.8548 37.2489 29.8601C36.2687 28.8997 34.9617 28.3508 33.5516 28.3508Z" fill="#FF2D55"/>
<path d="M35.712 30.5804L34.0095 32.2783C33.528 32.1068 32.9605 32.2097 32.565 32.6041C32.1695 32.9986 32.0663 33.5474 32.2383 34.0447L30.5358 35.7426C30.2778 35.9999 30.2606 36.3943 30.5014 36.6173C30.7421 36.8574 31.1377 36.8402 31.3784 36.583L33.0809 34.8851C33.5624 35.0566 34.1299 34.9537 34.5254 34.5592C34.921 34.1648 35.0242 33.616 34.8522 33.1186L36.5547 31.4207C36.8126 31.1635 36.8298 30.769 36.5891 30.5461C36.3655 30.306 35.97 30.3231 35.712 30.5804Z" fill="#FF2D55"/>
<path d="M33.5516 12.8641C31.9007 12.8641 30.2498 12.2296 28.9944 10.9776C26.4836 8.47364 26.4836 4.39188 28.9944 1.88794C30.2154 0.670265 31.8319 0.00140381 33.5516 0.00140381C35.2713 0.00140381 36.8878 0.670265 38.1087 1.88794C39.3297 3.10561 40.0004 4.71773 40.0004 6.43276C40.0004 8.14779 39.3297 9.75991 38.1087 10.9776C36.8534 12.2296 35.2025 12.8641 33.5516 12.8641ZM33.5516 1.20192C32.1586 1.20192 30.8345 1.75073 29.837 2.7283C27.7906 4.76918 27.7906 8.09634 29.837 10.1201C31.8835 12.161 35.2197 12.161 37.2489 10.1201C38.2463 9.12535 38.7794 7.82193 38.7794 6.41561C38.7794 5.00929 38.2291 3.70587 37.2489 2.71115C36.2687 1.71643 34.9617 1.20192 33.5516 1.20192Z" fill="#FF2D55"/>
<path d="M30.5358 4.27206L32.2383 5.96994C32.0663 6.45015 32.1695 7.01611 32.565 7.41056C32.9605 7.80502 33.5108 7.90792 34.0095 7.73642L35.712 9.4343C35.97 9.69155 36.3655 9.7087 36.5891 9.4686C36.8298 9.22849 36.8126 8.83404 36.5547 8.59393L34.8522 6.89605C35.0242 6.41585 34.921 5.84989 34.5254 5.45543C34.1299 5.06097 33.5796 4.95807 33.0809 5.12957L31.3784 3.4317C31.1205 3.17444 30.7249 3.15729 30.5014 3.3974C30.2606 3.62035 30.2778 4.01481 30.5358 4.27206Z" fill="#FF2D55"/>
<path d="M6.44884 40.013C4.79794 40.013 3.14703 39.3785 1.89166 38.1265C0.670679 36.9088 0 35.2967 0 33.5817C0 31.8667 0.670679 30.2545 1.89166 29.0369C3.11264 27.8192 4.72915 27.1503 6.44884 27.1503C8.16853 27.1503 9.78504 27.8192 11.006 29.0369C12.227 30.2545 12.8977 31.8667 12.8977 33.5817C12.8977 35.2967 12.227 36.9088 11.006 38.1265C9.75065 39.3956 8.09974 40.013 6.44884 40.013ZM6.44884 28.3508C5.05589 28.3508 3.73173 28.8997 2.73431 29.8772C1.73689 30.8719 1.20378 32.1754 1.20378 33.5817C1.20378 34.9709 1.75408 36.2914 2.73431 37.2861C4.78074 39.327 8.11694 39.327 10.1462 37.2861C11.1436 36.2914 11.6767 34.988 11.6767 33.5817C11.6767 32.1754 11.1264 30.8719 10.1462 29.8772C9.16595 28.8997 7.85899 28.3508 6.44884 28.3508Z" fill="#FF2D55"/>
<path d="M4.27978 30.5804L5.98228 32.2783C6.46379 32.1068 7.03129 32.2097 7.42682 32.6041C7.82235 32.9986 7.92553 33.5474 7.75356 34.0447L9.45605 35.7426C9.71401 35.9999 9.7312 36.3943 9.49045 36.6173C9.24969 36.8574 8.85416 36.8402 8.6134 36.583L6.91091 34.8851C6.4294 35.0566 5.8619 34.9537 5.46637 34.5592C5.07084 34.1648 4.96766 33.616 5.13963 33.1186L3.43713 31.4207C3.17918 31.1635 3.16198 30.769 3.40274 30.5461C3.6435 30.306 4.02183 30.3231 4.27978 30.5804Z" fill="#FF2D55"/>
<path d="M6.44884 12.8641C4.79794 12.8641 3.14703 12.2296 1.89166 10.9776C0.670679 9.75991 0 8.14779 0 6.43276C0 4.71773 0.670679 3.10561 1.89166 1.88794C3.11264 0.670265 4.72915 0.00140381 6.44884 0.00140381C8.16853 0.00140381 9.78504 0.670265 11.006 1.88794C12.227 3.10561 12.8977 4.71773 12.8977 6.43276C12.8977 8.14779 12.227 9.75991 11.006 10.9776C9.75065 12.2296 8.09974 12.8641 6.44884 12.8641ZM6.44884 1.20192C5.05589 1.20192 3.73173 1.75073 2.73431 2.7283C1.73689 3.72302 1.20378 5.02644 1.20378 6.43276C1.20378 7.82193 1.75408 9.1425 2.73431 10.1372C4.78074 12.1781 8.11694 12.1781 10.1462 10.1372C11.1436 9.1425 11.6767 7.83908 11.6767 6.43276C11.6767 5.02644 11.1264 3.72302 10.1462 2.7283C9.16595 1.75073 7.85899 1.20192 6.44884 1.20192Z" fill="#FF2D55"/>
<path d="M9.47325 4.27206L7.77076 5.96994C7.94273 6.45015 7.83954 7.01611 7.44402 7.41056C7.04849 7.80502 6.48099 7.90792 5.99947 7.73642L4.27978 9.45145C4.02183 9.7087 3.6263 9.72585 3.40274 9.48575C3.16198 9.24564 3.17918 8.85119 3.43713 8.61108L5.13963 6.9132C4.96766 6.433 5.07084 5.86704 5.46637 5.47258C5.8619 5.07812 6.4122 4.97522 6.91091 5.14673L8.6134 3.44885C8.87136 3.19159 9.26689 3.17444 9.49045 3.41455C9.7312 3.62035 9.71401 4.01481 9.47325 4.27206Z" fill="#FF2D55"/>
</svg>
