<svg width="49" height="48" viewBox="0 0 49 48" fill="none" xmlns="http://www.w3.org/2000/svg">
<path d="M24.5 16C27.8137 16 30.5 13.3137 30.5 10C30.5 6.68629 27.8137 4 24.5 4C21.1863 4 18.5 6.68629 18.5 10C18.5 13.3137 21.1863 16 24.5 16ZM24.5 16V44M24.5 44C19.1957 44 14.1086 41.8929 10.3579 38.1421C6.60714 34.3914 4.5 29.3043 4.5 24H10.5M24.5 44C29.8043 44 34.8914 41.8929 38.6421 38.1421C42.3929 34.3914 44.5 29.3043 44.5 24H38.5" stroke="white" stroke-width="2" stroke-linecap="round" stroke-linejoin="round"/>
</svg>
