<svg width="25" height="25" viewBox="0 0 25 25" fill="none" xmlns="http://www.w3.org/2000/svg">
<path d="M12.4996 3.22021C9.15081 3.22021 4.8043 4.05928 4.8043 4.05928L4.79336 4.07178C3.26814 4.31571 2.09961 5.62631 2.09961 7.22021V12.0202V12.0218V16.8202V16.8218C2.1011 17.583 2.37391 18.3188 2.86905 18.897C3.36419 19.4752 4.04923 19.8579 4.80117 19.9765L4.8043 19.9812C4.8043 19.9812 9.15081 20.8218 12.4996 20.8218C15.8484 20.8218 20.1949 19.9812 20.1949 19.9812L20.1965 19.9796C20.9492 19.8613 21.6351 19.4782 22.1306 18.8993C22.6261 18.3205 22.8988 17.5838 22.8996 16.8218V16.8202V12.0218V12.0202V7.22021C22.8985 6.45872 22.6259 5.72258 22.1307 5.14406C21.6355 4.56555 20.9503 4.18258 20.198 4.06396L20.1949 4.05928C20.1949 4.05928 15.8484 3.22021 12.4996 3.22021ZM10.0996 8.33897L16.4996 12.0202L10.0996 15.7015V8.33897Z" fill="#65558F"/>
</svg>
